<svg xmlns="http://www.w3.org/2000/svg" height="16" width="16">
<path d="M 2 0 C 0.90927134 0 0 0.9093 0 2 L 0 14 C 0 15.0908 0.90927134 16 2 16 L 14 16 C 15.090729 16 16 15.0908 16 14 L 16 2 C 16 0.9093 15.090729 0 14 0 L 2 0 z M 2 2 L 8 2 L 8 4 L 12 4 C 12.554026 4 13 4.446 13 5 L 13 8 L 13 9 C 13 9.554 12.554026 10 12 10 L 8 10 L 8 11 L 12 11 L 12 12 L 8 12 L 8 14 L 2 14 L 2 2 z M 8 5 L 8 6 L 10 6 L 10 7 L 8 7 L 8 9 L 12 9 L 12 8 L 12 5 L 8 5 z "/>
<path d="M 4 4 C 3.4459741 4 3 4.446 3 5 L 3 11 C 3 11.554 3.4459741 12 4 12 L 8 12 L 8 11 L 4 11 L 4 5 L 8 5 L 8 4 L 4 4 z M 6 6 C 5.4459741 6 5 6.446 5 7 L 5 9 C 5 9.554 5.4459741 10 6 10 L 8 10 L 8 9 L 6 9 L 6 7 L 8 7 L 8 6 L 6 6 z "/>
</svg>
